<mxfile host="app.diagrams.net" agent="Mozilla/5.0 (Windows NT 10.0; Win64; x64) AppleWebKit/537.36 (KHTML, like Gecko) Chrome/140.0.0.0 Safari/537.36" version="28.2.3">
  <diagram name="Page-1" id="BcZ4b10Lv8bWHi4qfx53">
    <mxGraphModel grid="1" page="1" gridSize="10" guides="1" tooltips="1" connect="1" arrows="1" fold="1" pageScale="1" pageWidth="850" pageHeight="1100" math="0" shadow="0">
      <root>
        <mxCell id="0" />
        <mxCell id="1" parent="0" />
        <mxCell id="x7a8Hw47goqFUDWpzmfe-1" value="" style="rounded=0;whiteSpace=wrap;html=1;" vertex="1" parent="1">
          <mxGeometry x="30" y="129.44" width="430" height="280" as="geometry" />
        </mxCell>
        <mxCell id="x7a8Hw47goqFUDWpzmfe-5" value="" style="endArrow=none;html=1;rounded=0;exitX=0;exitY=0.25;exitDx=0;exitDy=0;entryX=0;entryY=0.25;entryDx=0;entryDy=0;strokeWidth=1;" edge="1" parent="1">
          <mxGeometry width="50" height="50" relative="1" as="geometry">
            <mxPoint x="30" y="199.44" as="sourcePoint" />
            <mxPoint x="460" y="199.44" as="targetPoint" />
          </mxGeometry>
        </mxCell>
        <mxCell id="x7a8Hw47goqFUDWpzmfe-12" value="" style="endArrow=none;html=1;rounded=0;exitX=0;exitY=0.25;exitDx=0;exitDy=0;entryX=0;entryY=0.25;entryDx=0;entryDy=0;strokeWidth=1;" edge="1" parent="1">
          <mxGeometry width="50" height="50" relative="1" as="geometry">
            <mxPoint x="30" y="269.44" as="sourcePoint" />
            <mxPoint x="460" y="269.44" as="targetPoint" />
          </mxGeometry>
        </mxCell>
        <mxCell id="x7a8Hw47goqFUDWpzmfe-14" value="" style="endArrow=none;html=1;rounded=0;exitX=0;exitY=0.25;exitDx=0;exitDy=0;entryX=0;entryY=0.25;entryDx=0;entryDy=0;strokeWidth=1;" edge="1" parent="1">
          <mxGeometry width="50" height="50" relative="1" as="geometry">
            <mxPoint x="30" y="339.44" as="sourcePoint" />
            <mxPoint x="460" y="339.44" as="targetPoint" />
          </mxGeometry>
        </mxCell>
        <mxCell id="x7a8Hw47goqFUDWpzmfe-16" value="" style="endArrow=none;html=1;rounded=0;entryX=0.25;entryY=0;entryDx=0;entryDy=0;exitX=0.256;exitY=1.002;exitDx=0;exitDy=0;exitPerimeter=0;" edge="1" parent="1" source="x7a8Hw47goqFUDWpzmfe-1">
          <mxGeometry width="50" height="50" relative="1" as="geometry">
            <mxPoint x="140" y="399.44" as="sourcePoint" />
            <mxPoint x="140" y="129.44" as="targetPoint" />
          </mxGeometry>
        </mxCell>
        <mxCell id="x7a8Hw47goqFUDWpzmfe-17" value="" style="endArrow=none;html=1;rounded=0;entryX=0.25;entryY=0;entryDx=0;entryDy=0;exitX=0.441;exitY=1;exitDx=0;exitDy=0;exitPerimeter=0;" edge="1" parent="1" source="x7a8Hw47goqFUDWpzmfe-1">
          <mxGeometry width="50" height="50" relative="1" as="geometry">
            <mxPoint x="220" y="399.44" as="sourcePoint" />
            <mxPoint x="220" y="129.44" as="targetPoint" />
          </mxGeometry>
        </mxCell>
        <mxCell id="x7a8Hw47goqFUDWpzmfe-18" value="" style="endArrow=none;html=1;rounded=0;entryX=0.25;entryY=0;entryDx=0;entryDy=0;" edge="1" parent="1">
          <mxGeometry width="50" height="50" relative="1" as="geometry">
            <mxPoint x="300" y="409.44" as="sourcePoint" />
            <mxPoint x="300" y="129.44" as="targetPoint" />
          </mxGeometry>
        </mxCell>
        <mxCell id="x7a8Hw47goqFUDWpzmfe-19" value="" style="endArrow=none;html=1;rounded=0;entryX=0.25;entryY=0;entryDx=0;entryDy=0;exitX=0.814;exitY=0.999;exitDx=0;exitDy=0;exitPerimeter=0;" edge="1" parent="1" source="x7a8Hw47goqFUDWpzmfe-1">
          <mxGeometry width="50" height="50" relative="1" as="geometry">
            <mxPoint x="380" y="399.44" as="sourcePoint" />
            <mxPoint x="380" y="129.44" as="targetPoint" />
          </mxGeometry>
        </mxCell>
        <mxCell id="x7a8Hw47goqFUDWpzmfe-20" value="" style="endArrow=none;html=1;rounded=0;entryX=0.25;entryY=0;entryDx=0;entryDy=0;" edge="1" parent="1">
          <mxGeometry width="50" height="50" relative="1" as="geometry">
            <mxPoint x="70" y="409.44" as="sourcePoint" />
            <mxPoint x="70" y="129.44" as="targetPoint" />
          </mxGeometry>
        </mxCell>
        <mxCell id="x7a8Hw47goqFUDWpzmfe-21" value="&lt;font face=&quot;Garamond&quot;&gt;Cost&lt;/font&gt;" style="text;html=1;align=center;verticalAlign=middle;whiteSpace=wrap;rounded=0;" vertex="1" parent="1">
          <mxGeometry x="75" y="130.44" width="60" height="30" as="geometry" />
        </mxCell>
        <mxCell id="x7a8Hw47goqFUDWpzmfe-22" value="&lt;font face=&quot;Garamond&quot;&gt;Cost&lt;/font&gt;" style="text;html=1;align=center;verticalAlign=middle;whiteSpace=wrap;rounded=0;" vertex="1" parent="1">
          <mxGeometry x="75" y="199.44" width="60" height="30" as="geometry" />
        </mxCell>
        <mxCell id="x7a8Hw47goqFUDWpzmfe-23" value="&lt;font face=&quot;Garamond&quot;&gt;Cost&lt;/font&gt;" style="text;html=1;align=center;verticalAlign=middle;whiteSpace=wrap;rounded=0;" vertex="1" parent="1">
          <mxGeometry x="75" y="269.44" width="60" height="30" as="geometry" />
        </mxCell>
        <mxCell id="x7a8Hw47goqFUDWpzmfe-24" value="&lt;font face=&quot;Garamond&quot;&gt;Cost&lt;/font&gt;" style="text;html=1;align=center;verticalAlign=middle;whiteSpace=wrap;rounded=0;" vertex="1" parent="1">
          <mxGeometry x="75" y="339.44" width="60" height="30" as="geometry" />
        </mxCell>
        <mxCell id="x7a8Hw47goqFUDWpzmfe-25" value="" style="endArrow=none;html=1;rounded=0;" edge="1" parent="1">
          <mxGeometry width="50" height="50" relative="1" as="geometry">
            <mxPoint x="87.5" y="259.44" as="sourcePoint" />
            <mxPoint x="122.5" y="259.44" as="targetPoint" />
          </mxGeometry>
        </mxCell>
        <mxCell id="x7a8Hw47goqFUDWpzmfe-26" value="" style="endArrow=none;html=1;rounded=0;" edge="1" parent="1">
          <mxGeometry width="50" height="50" relative="1" as="geometry">
            <mxPoint x="87.5" y="189.44" as="sourcePoint" />
            <mxPoint x="122.5" y="189.44" as="targetPoint" />
          </mxGeometry>
        </mxCell>
        <mxCell id="x7a8Hw47goqFUDWpzmfe-27" value="" style="endArrow=none;html=1;rounded=0;" edge="1" parent="1">
          <mxGeometry width="50" height="50" relative="1" as="geometry">
            <mxPoint x="87.5" y="329.44" as="sourcePoint" />
            <mxPoint x="122.5" y="329.44" as="targetPoint" />
          </mxGeometry>
        </mxCell>
        <mxCell id="x7a8Hw47goqFUDWpzmfe-28" value="" style="endArrow=none;html=1;rounded=0;" edge="1" parent="1">
          <mxGeometry width="50" height="50" relative="1" as="geometry">
            <mxPoint x="87.5" y="399.44" as="sourcePoint" />
            <mxPoint x="122.5" y="399.44" as="targetPoint" />
          </mxGeometry>
        </mxCell>
        <mxCell id="x7a8Hw47goqFUDWpzmfe-29" value="&lt;font face=&quot;Garamond&quot;&gt;Front&lt;/font&gt;" style="text;html=1;align=center;verticalAlign=middle;whiteSpace=wrap;rounded=0;rotation=-90;" vertex="1" parent="1">
          <mxGeometry x="20" y="149.44" width="60" height="30" as="geometry" />
        </mxCell>
        <mxCell id="x7a8Hw47goqFUDWpzmfe-30" value="&lt;font face=&quot;Garamond&quot;&gt;Sides&lt;/font&gt;" style="text;html=1;align=center;verticalAlign=middle;whiteSpace=wrap;rounded=0;rotation=-90;" vertex="1" parent="1">
          <mxGeometry x="20" y="219.44" width="60" height="30" as="geometry" />
        </mxCell>
        <mxCell id="x7a8Hw47goqFUDWpzmfe-31" value="&lt;font face=&quot;Garamond&quot;&gt;Special&lt;/font&gt;" style="text;html=1;align=center;verticalAlign=middle;whiteSpace=wrap;rounded=0;rotation=-90;" vertex="1" parent="1">
          <mxGeometry x="20" y="289.44" width="60" height="30" as="geometry" />
        </mxCell>
        <mxCell id="x7a8Hw47goqFUDWpzmfe-32" value="&lt;font face=&quot;Garamond&quot;&gt;Move&lt;/font&gt;" style="text;html=1;align=center;verticalAlign=middle;whiteSpace=wrap;rounded=0;rotation=-90;" vertex="1" parent="1">
          <mxGeometry x="20" y="359.44" width="60" height="30" as="geometry" />
        </mxCell>
        <mxCell id="ipA10tFycHKsT4RxU6uv-64" value="" style="rounded=0;whiteSpace=wrap;html=1;" vertex="1" parent="1">
          <mxGeometry x="530" y="29.439999999999998" width="430" height="280" as="geometry" />
        </mxCell>
        <mxCell id="ipA10tFycHKsT4RxU6uv-65" value="" style="endArrow=none;html=1;rounded=0;exitX=0;exitY=0.25;exitDx=0;exitDy=0;entryX=0;entryY=0.25;entryDx=0;entryDy=0;strokeWidth=1;" edge="1" parent="1">
          <mxGeometry width="50" height="50" relative="1" as="geometry">
            <mxPoint x="960" y="99.44" as="sourcePoint" />
            <mxPoint x="530" y="99.44" as="targetPoint" />
          </mxGeometry>
        </mxCell>
        <mxCell id="ipA10tFycHKsT4RxU6uv-66" value="" style="endArrow=none;html=1;rounded=0;exitX=0;exitY=0.25;exitDx=0;exitDy=0;entryX=0;entryY=0.25;entryDx=0;entryDy=0;strokeWidth=1;" edge="1" parent="1">
          <mxGeometry width="50" height="50" relative="1" as="geometry">
            <mxPoint x="960" y="169.44" as="sourcePoint" />
            <mxPoint x="530" y="169.44" as="targetPoint" />
          </mxGeometry>
        </mxCell>
        <mxCell id="ipA10tFycHKsT4RxU6uv-67" value="" style="endArrow=none;html=1;rounded=0;exitX=0;exitY=0.25;exitDx=0;exitDy=0;entryX=0;entryY=0.25;entryDx=0;entryDy=0;strokeWidth=1;" edge="1" parent="1">
          <mxGeometry width="50" height="50" relative="1" as="geometry">
            <mxPoint x="960" y="239.44" as="sourcePoint" />
            <mxPoint x="530" y="239.44" as="targetPoint" />
          </mxGeometry>
        </mxCell>
        <mxCell id="ipA10tFycHKsT4RxU6uv-72" value="" style="endArrow=none;html=1;rounded=0;entryX=0.25;entryY=0;entryDx=0;entryDy=0;" edge="1" parent="1">
          <mxGeometry width="50" height="50" relative="1" as="geometry">
            <mxPoint x="920" y="309.44" as="sourcePoint" />
            <mxPoint x="920" y="29.439999999999998" as="targetPoint" />
          </mxGeometry>
        </mxCell>
        <mxCell id="ipA10tFycHKsT4RxU6uv-73" value="&lt;font face=&quot;Garamond&quot;&gt;Cost&lt;/font&gt;" style="text;html=1;align=center;verticalAlign=middle;whiteSpace=wrap;rounded=0;" vertex="1" parent="1">
          <mxGeometry x="855" y="30.439999999999998" width="60" height="30" as="geometry" />
        </mxCell>
        <mxCell id="ipA10tFycHKsT4RxU6uv-74" value="&lt;font face=&quot;Garamond&quot;&gt;Cost&lt;/font&gt;" style="text;html=1;align=center;verticalAlign=middle;whiteSpace=wrap;rounded=0;" vertex="1" parent="1">
          <mxGeometry x="855" y="99.44" width="60" height="30" as="geometry" />
        </mxCell>
        <mxCell id="ipA10tFycHKsT4RxU6uv-75" value="&lt;font face=&quot;Garamond&quot;&gt;Cost&lt;/font&gt;" style="text;html=1;align=center;verticalAlign=middle;whiteSpace=wrap;rounded=0;" vertex="1" parent="1">
          <mxGeometry x="855" y="169.44" width="60" height="30" as="geometry" />
        </mxCell>
        <mxCell id="ipA10tFycHKsT4RxU6uv-76" value="&lt;font face=&quot;Garamond&quot;&gt;Cost&lt;/font&gt;" style="text;html=1;align=center;verticalAlign=middle;whiteSpace=wrap;rounded=0;" vertex="1" parent="1">
          <mxGeometry x="855" y="239.44" width="60" height="30" as="geometry" />
        </mxCell>
        <mxCell id="ipA10tFycHKsT4RxU6uv-77" value="" style="endArrow=none;html=1;rounded=0;" edge="1" parent="1">
          <mxGeometry width="50" height="50" relative="1" as="geometry">
            <mxPoint x="902.5" y="159.44" as="sourcePoint" />
            <mxPoint x="867.5" y="159.44" as="targetPoint" />
          </mxGeometry>
        </mxCell>
        <mxCell id="ipA10tFycHKsT4RxU6uv-78" value="" style="endArrow=none;html=1;rounded=0;" edge="1" parent="1">
          <mxGeometry width="50" height="50" relative="1" as="geometry">
            <mxPoint x="902.5" y="89.44" as="sourcePoint" />
            <mxPoint x="867.5" y="89.44" as="targetPoint" />
          </mxGeometry>
        </mxCell>
        <mxCell id="ipA10tFycHKsT4RxU6uv-79" value="" style="endArrow=none;html=1;rounded=0;" edge="1" parent="1">
          <mxGeometry width="50" height="50" relative="1" as="geometry">
            <mxPoint x="902.5" y="229.44" as="sourcePoint" />
            <mxPoint x="867.5" y="229.44" as="targetPoint" />
          </mxGeometry>
        </mxCell>
        <mxCell id="ipA10tFycHKsT4RxU6uv-80" value="" style="endArrow=none;html=1;rounded=0;" edge="1" parent="1">
          <mxGeometry width="50" height="50" relative="1" as="geometry">
            <mxPoint x="902.5" y="299.44" as="sourcePoint" />
            <mxPoint x="867.5" y="299.44" as="targetPoint" />
          </mxGeometry>
        </mxCell>
        <mxCell id="ipA10tFycHKsT4RxU6uv-81" value="&lt;font face=&quot;Garamond&quot;&gt;Front&lt;/font&gt;" style="text;html=1;align=center;verticalAlign=middle;whiteSpace=wrap;rounded=0;rotation=90;" vertex="1" parent="1">
          <mxGeometry x="910" y="49.44" width="60" height="30" as="geometry" />
        </mxCell>
        <mxCell id="ipA10tFycHKsT4RxU6uv-82" value="&lt;font face=&quot;Garamond&quot;&gt;Sides&lt;/font&gt;" style="text;html=1;align=center;verticalAlign=middle;whiteSpace=wrap;rounded=0;rotation=90;" vertex="1" parent="1">
          <mxGeometry x="910" y="119.44" width="60" height="30" as="geometry" />
        </mxCell>
        <mxCell id="ipA10tFycHKsT4RxU6uv-83" value="&lt;font face=&quot;Garamond&quot;&gt;Special&lt;/font&gt;" style="text;html=1;align=center;verticalAlign=middle;whiteSpace=wrap;rounded=0;rotation=90;" vertex="1" parent="1">
          <mxGeometry x="910" y="189.44" width="60" height="30" as="geometry" />
        </mxCell>
        <mxCell id="ipA10tFycHKsT4RxU6uv-84" value="&lt;font face=&quot;Garamond&quot;&gt;Move&lt;/font&gt;" style="text;html=1;align=center;verticalAlign=middle;whiteSpace=wrap;rounded=0;rotation=90;" vertex="1" parent="1">
          <mxGeometry x="910" y="259.44" width="60" height="30" as="geometry" />
        </mxCell>
        <mxCell id="ipA10tFycHKsT4RxU6uv-87" value="" style="endArrow=none;html=1;rounded=0;entryX=0.743;entryY=1;entryDx=0;entryDy=0;entryPerimeter=0;exitX=0.742;exitY=-0.004;exitDx=0;exitDy=0;exitPerimeter=0;" edge="1" parent="1" source="ipA10tFycHKsT4RxU6uv-64" target="ipA10tFycHKsT4RxU6uv-64">
          <mxGeometry width="50" height="50" relative="1" as="geometry">
            <mxPoint x="850" y="30" as="sourcePoint" />
            <mxPoint x="850" y="210" as="targetPoint" />
          </mxGeometry>
        </mxCell>
        <mxCell id="ipA10tFycHKsT4RxU6uv-88" value="" style="endArrow=none;html=1;rounded=0;entryX=0.535;entryY=1.002;entryDx=0;entryDy=0;entryPerimeter=0;" edge="1" parent="1">
          <mxGeometry width="50" height="50" relative="1" as="geometry">
            <mxPoint x="770" y="29.44" as="sourcePoint" />
            <mxPoint x="770.05" y="308.94" as="targetPoint" />
          </mxGeometry>
        </mxCell>
        <mxCell id="ipA10tFycHKsT4RxU6uv-89" value="" style="endArrow=none;html=1;rounded=0;entryX=0.535;entryY=1.002;entryDx=0;entryDy=0;entryPerimeter=0;" edge="1" parent="1">
          <mxGeometry width="50" height="50" relative="1" as="geometry">
            <mxPoint x="690" y="29.439999999999998" as="sourcePoint" />
            <mxPoint x="690.05" y="308.94" as="targetPoint" />
          </mxGeometry>
        </mxCell>
        <mxCell id="ipA10tFycHKsT4RxU6uv-91" value="" style="endArrow=none;html=1;rounded=0;entryX=0.535;entryY=1.002;entryDx=0;entryDy=0;entryPerimeter=0;" edge="1" parent="1">
          <mxGeometry width="50" height="50" relative="1" as="geometry">
            <mxPoint x="610" y="30.5" as="sourcePoint" />
            <mxPoint x="610.05" y="310" as="targetPoint" />
          </mxGeometry>
        </mxCell>
        <mxCell id="ipA10tFycHKsT4RxU6uv-115" value="" style="rounded=0;whiteSpace=wrap;html=1;" vertex="1" parent="1">
          <mxGeometry x="30" y="409.44" width="430" height="280" as="geometry" />
        </mxCell>
        <mxCell id="ipA10tFycHKsT4RxU6uv-117" value="" style="endArrow=none;html=1;rounded=0;exitX=0;exitY=0.25;exitDx=0;exitDy=0;entryX=0;entryY=0.25;entryDx=0;entryDy=0;strokeWidth=1;" edge="1" parent="1">
          <mxGeometry width="50" height="50" relative="1" as="geometry">
            <mxPoint x="30" y="499.44" as="sourcePoint" />
            <mxPoint x="460" y="499.44" as="targetPoint" />
          </mxGeometry>
        </mxCell>
        <mxCell id="ipA10tFycHKsT4RxU6uv-118" value="" style="endArrow=none;html=1;rounded=0;exitX=0;exitY=0.25;exitDx=0;exitDy=0;entryX=0;entryY=0.25;entryDx=0;entryDy=0;strokeWidth=1;" edge="1" parent="1">
          <mxGeometry width="50" height="50" relative="1" as="geometry">
            <mxPoint x="30" y="589.44" as="sourcePoint" />
            <mxPoint x="460" y="589.44" as="targetPoint" />
          </mxGeometry>
        </mxCell>
        <mxCell id="ipA10tFycHKsT4RxU6uv-119" value="" style="endArrow=none;html=1;rounded=0;entryX=0.25;entryY=0;entryDx=0;entryDy=0;" edge="1" parent="1">
          <mxGeometry width="50" height="50" relative="1" as="geometry">
            <mxPoint x="70" y="689.44" as="sourcePoint" />
            <mxPoint x="70" y="409.44" as="targetPoint" />
          </mxGeometry>
        </mxCell>
        <mxCell id="ipA10tFycHKsT4RxU6uv-120" value="&lt;font face=&quot;Garamond&quot;&gt;Front&lt;/font&gt;" style="text;html=1;align=center;verticalAlign=middle;whiteSpace=wrap;rounded=0;rotation=-90;" vertex="1" parent="1">
          <mxGeometry x="20" y="439.44" width="60" height="30" as="geometry" />
        </mxCell>
        <mxCell id="ipA10tFycHKsT4RxU6uv-121" value="&lt;font face=&quot;Garamond&quot;&gt;Sides&lt;/font&gt;" style="text;html=1;align=center;verticalAlign=middle;whiteSpace=wrap;rounded=0;rotation=-90;" vertex="1" parent="1">
          <mxGeometry x="20" y="534.44" width="60" height="30" as="geometry" />
        </mxCell>
        <mxCell id="ipA10tFycHKsT4RxU6uv-122" value="&lt;font face=&quot;Garamond&quot;&gt;Special&lt;/font&gt;" style="text;html=1;align=center;verticalAlign=middle;whiteSpace=wrap;rounded=0;rotation=-90;" vertex="1" parent="1">
          <mxGeometry x="20" y="624.44" width="60" height="30" as="geometry" />
        </mxCell>
        <mxCell id="ipA10tFycHKsT4RxU6uv-124" value="" style="endArrow=none;html=1;rounded=0;" edge="1" parent="1">
          <mxGeometry width="50" height="50" relative="1" as="geometry">
            <mxPoint x="86" y="436.44" as="sourcePoint" />
            <mxPoint x="216" y="436.44" as="targetPoint" />
          </mxGeometry>
        </mxCell>
        <mxCell id="ipA10tFycHKsT4RxU6uv-126" value="" style="endArrow=none;html=1;rounded=0;startSize=6;dashed=1;dashPattern=1 1;" edge="1" parent="1">
          <mxGeometry width="50" height="50" relative="1" as="geometry">
            <mxPoint x="86" y="472.44" as="sourcePoint" />
            <mxPoint x="445" y="472.44" as="targetPoint" />
          </mxGeometry>
        </mxCell>
        <mxCell id="ipA10tFycHKsT4RxU6uv-130" value="" style="endArrow=none;html=1;rounded=0;startSize=6;dashed=1;dashPattern=1 1;" edge="1" parent="1">
          <mxGeometry width="50" height="50" relative="1" as="geometry">
            <mxPoint x="86" y="489.44" as="sourcePoint" />
            <mxPoint x="445" y="489.44" as="targetPoint" />
          </mxGeometry>
        </mxCell>
        <mxCell id="ipA10tFycHKsT4RxU6uv-132" value="" style="endArrow=none;html=1;rounded=0;" edge="1" parent="1">
          <mxGeometry width="50" height="50" relative="1" as="geometry">
            <mxPoint x="230" y="436.44" as="sourcePoint" />
            <mxPoint x="264" y="436.44" as="targetPoint" />
          </mxGeometry>
        </mxCell>
        <mxCell id="ipA10tFycHKsT4RxU6uv-134" value="" style="endArrow=none;html=1;rounded=0;" edge="1" parent="1">
          <mxGeometry width="50" height="50" relative="1" as="geometry">
            <mxPoint x="274" y="436.44" as="sourcePoint" />
            <mxPoint x="334" y="436.44" as="targetPoint" />
          </mxGeometry>
        </mxCell>
        <mxCell id="ipA10tFycHKsT4RxU6uv-135" value="" style="whiteSpace=wrap;html=1;aspect=fixed;" vertex="1" parent="1">
          <mxGeometry x="350" y="419.44" width="15" height="15" as="geometry" />
        </mxCell>
        <mxCell id="ipA10tFycHKsT4RxU6uv-136" value="" style="whiteSpace=wrap;html=1;aspect=fixed;" vertex="1" parent="1">
          <mxGeometry x="370" y="419.44" width="15" height="15" as="geometry" />
        </mxCell>
        <mxCell id="ipA10tFycHKsT4RxU6uv-137" value="" style="whiteSpace=wrap;html=1;aspect=fixed;" vertex="1" parent="1">
          <mxGeometry x="390" y="419.44" width="15" height="15" as="geometry" />
        </mxCell>
        <mxCell id="ipA10tFycHKsT4RxU6uv-138" value="" style="whiteSpace=wrap;html=1;aspect=fixed;" vertex="1" parent="1">
          <mxGeometry x="410" y="419.44" width="15" height="15" as="geometry" />
        </mxCell>
        <mxCell id="ipA10tFycHKsT4RxU6uv-139" value="" style="whiteSpace=wrap;html=1;aspect=fixed;" vertex="1" parent="1">
          <mxGeometry x="430" y="419.44" width="15" height="15" as="geometry" />
        </mxCell>
        <mxCell id="ipA10tFycHKsT4RxU6uv-140" value="" style="whiteSpace=wrap;html=1;aspect=fixed;" vertex="1" parent="1">
          <mxGeometry x="350" y="439.44" width="15" height="15" as="geometry" />
        </mxCell>
        <mxCell id="ipA10tFycHKsT4RxU6uv-141" value="" style="whiteSpace=wrap;html=1;aspect=fixed;" vertex="1" parent="1">
          <mxGeometry x="370" y="439.44" width="15" height="15" as="geometry" />
        </mxCell>
        <mxCell id="ipA10tFycHKsT4RxU6uv-142" value="" style="whiteSpace=wrap;html=1;aspect=fixed;" vertex="1" parent="1">
          <mxGeometry x="390" y="439.44" width="15" height="15" as="geometry" />
        </mxCell>
        <mxCell id="ipA10tFycHKsT4RxU6uv-143" value="" style="whiteSpace=wrap;html=1;aspect=fixed;" vertex="1" parent="1">
          <mxGeometry x="410" y="439.44" width="15" height="15" as="geometry" />
        </mxCell>
        <mxCell id="ipA10tFycHKsT4RxU6uv-144" value="" style="whiteSpace=wrap;html=1;aspect=fixed;" vertex="1" parent="1">
          <mxGeometry x="430" y="439.44" width="15" height="15" as="geometry" />
        </mxCell>
        <mxCell id="ipA10tFycHKsT4RxU6uv-145" value="" style="endArrow=none;html=1;rounded=0;" edge="1" parent="1">
          <mxGeometry width="50" height="50" relative="1" as="geometry">
            <mxPoint x="86" y="526.44" as="sourcePoint" />
            <mxPoint x="216" y="526.44" as="targetPoint" />
          </mxGeometry>
        </mxCell>
        <mxCell id="ipA10tFycHKsT4RxU6uv-146" value="" style="endArrow=none;html=1;rounded=0;startSize=6;dashed=1;dashPattern=1 1;" edge="1" parent="1">
          <mxGeometry width="50" height="50" relative="1" as="geometry">
            <mxPoint x="86" y="562.44" as="sourcePoint" />
            <mxPoint x="445" y="562.44" as="targetPoint" />
          </mxGeometry>
        </mxCell>
        <mxCell id="ipA10tFycHKsT4RxU6uv-147" value="" style="endArrow=none;html=1;rounded=0;startSize=6;dashed=1;dashPattern=1 1;" edge="1" parent="1">
          <mxGeometry width="50" height="50" relative="1" as="geometry">
            <mxPoint x="86" y="579.44" as="sourcePoint" />
            <mxPoint x="445" y="579.44" as="targetPoint" />
          </mxGeometry>
        </mxCell>
        <mxCell id="ipA10tFycHKsT4RxU6uv-148" value="" style="endArrow=none;html=1;rounded=0;" edge="1" parent="1">
          <mxGeometry width="50" height="50" relative="1" as="geometry">
            <mxPoint x="230" y="526.44" as="sourcePoint" />
            <mxPoint x="264" y="526.44" as="targetPoint" />
          </mxGeometry>
        </mxCell>
        <mxCell id="ipA10tFycHKsT4RxU6uv-149" value="" style="endArrow=none;html=1;rounded=0;" edge="1" parent="1">
          <mxGeometry width="50" height="50" relative="1" as="geometry">
            <mxPoint x="274" y="526.44" as="sourcePoint" />
            <mxPoint x="334" y="526.44" as="targetPoint" />
          </mxGeometry>
        </mxCell>
        <mxCell id="ipA10tFycHKsT4RxU6uv-150" value="" style="whiteSpace=wrap;html=1;aspect=fixed;" vertex="1" parent="1">
          <mxGeometry x="350" y="509.44" width="15" height="15" as="geometry" />
        </mxCell>
        <mxCell id="ipA10tFycHKsT4RxU6uv-151" value="" style="whiteSpace=wrap;html=1;aspect=fixed;" vertex="1" parent="1">
          <mxGeometry x="390" y="509.44" width="15" height="15" as="geometry" />
        </mxCell>
        <mxCell id="ipA10tFycHKsT4RxU6uv-152" value="" style="whiteSpace=wrap;html=1;aspect=fixed;" vertex="1" parent="1">
          <mxGeometry x="410" y="509.44" width="15" height="15" as="geometry" />
        </mxCell>
        <mxCell id="ipA10tFycHKsT4RxU6uv-153" value="" style="whiteSpace=wrap;html=1;aspect=fixed;" vertex="1" parent="1">
          <mxGeometry x="430" y="509.44" width="15" height="15" as="geometry" />
        </mxCell>
        <mxCell id="ipA10tFycHKsT4RxU6uv-154" value="" style="whiteSpace=wrap;html=1;aspect=fixed;" vertex="1" parent="1">
          <mxGeometry x="350" y="529.44" width="15" height="15" as="geometry" />
        </mxCell>
        <mxCell id="ipA10tFycHKsT4RxU6uv-155" value="" style="whiteSpace=wrap;html=1;aspect=fixed;" vertex="1" parent="1">
          <mxGeometry x="370" y="529.44" width="15" height="15" as="geometry" />
        </mxCell>
        <mxCell id="ipA10tFycHKsT4RxU6uv-156" value="" style="whiteSpace=wrap;html=1;aspect=fixed;" vertex="1" parent="1">
          <mxGeometry x="390" y="529.44" width="15" height="15" as="geometry" />
        </mxCell>
        <mxCell id="ipA10tFycHKsT4RxU6uv-157" value="" style="whiteSpace=wrap;html=1;aspect=fixed;" vertex="1" parent="1">
          <mxGeometry x="410" y="529.44" width="15" height="15" as="geometry" />
        </mxCell>
        <mxCell id="ipA10tFycHKsT4RxU6uv-158" value="" style="whiteSpace=wrap;html=1;aspect=fixed;" vertex="1" parent="1">
          <mxGeometry x="430" y="529.44" width="15" height="15" as="geometry" />
        </mxCell>
        <mxCell id="ipA10tFycHKsT4RxU6uv-159" value="" style="whiteSpace=wrap;html=1;aspect=fixed;" vertex="1" parent="1">
          <mxGeometry x="370" y="509.44" width="15" height="15" as="geometry" />
        </mxCell>
        <mxCell id="ipA10tFycHKsT4RxU6uv-160" value="" style="endArrow=none;html=1;rounded=0;" edge="1" parent="1">
          <mxGeometry width="50" height="50" relative="1" as="geometry">
            <mxPoint x="86" y="621.23" as="sourcePoint" />
            <mxPoint x="216" y="621.23" as="targetPoint" />
          </mxGeometry>
        </mxCell>
        <mxCell id="ipA10tFycHKsT4RxU6uv-161" value="" style="endArrow=none;html=1;rounded=0;startSize=6;dashed=1;dashPattern=1 1;" edge="1" parent="1">
          <mxGeometry width="50" height="50" relative="1" as="geometry">
            <mxPoint x="86" y="657.23" as="sourcePoint" />
            <mxPoint x="445" y="657.23" as="targetPoint" />
          </mxGeometry>
        </mxCell>
        <mxCell id="ipA10tFycHKsT4RxU6uv-162" value="" style="endArrow=none;html=1;rounded=0;startSize=6;dashed=1;dashPattern=1 1;" edge="1" parent="1">
          <mxGeometry width="50" height="50" relative="1" as="geometry">
            <mxPoint x="86" y="674.23" as="sourcePoint" />
            <mxPoint x="445" y="674.23" as="targetPoint" />
          </mxGeometry>
        </mxCell>
        <mxCell id="ipA10tFycHKsT4RxU6uv-163" value="" style="endArrow=none;html=1;rounded=0;" edge="1" parent="1">
          <mxGeometry width="50" height="50" relative="1" as="geometry">
            <mxPoint x="230" y="621.23" as="sourcePoint" />
            <mxPoint x="264" y="621.23" as="targetPoint" />
          </mxGeometry>
        </mxCell>
        <mxCell id="ipA10tFycHKsT4RxU6uv-164" value="" style="endArrow=none;html=1;rounded=0;" edge="1" parent="1">
          <mxGeometry width="50" height="50" relative="1" as="geometry">
            <mxPoint x="274" y="621.23" as="sourcePoint" />
            <mxPoint x="334" y="621.23" as="targetPoint" />
          </mxGeometry>
        </mxCell>
        <mxCell id="ipA10tFycHKsT4RxU6uv-165" value="" style="whiteSpace=wrap;html=1;aspect=fixed;" vertex="1" parent="1">
          <mxGeometry x="350" y="604.23" width="15" height="15" as="geometry" />
        </mxCell>
        <mxCell id="ipA10tFycHKsT4RxU6uv-166" value="" style="whiteSpace=wrap;html=1;aspect=fixed;" vertex="1" parent="1">
          <mxGeometry x="390" y="604.23" width="15" height="15" as="geometry" />
        </mxCell>
        <mxCell id="ipA10tFycHKsT4RxU6uv-167" value="" style="whiteSpace=wrap;html=1;aspect=fixed;" vertex="1" parent="1">
          <mxGeometry x="410" y="604.23" width="15" height="15" as="geometry" />
        </mxCell>
        <mxCell id="ipA10tFycHKsT4RxU6uv-168" value="" style="whiteSpace=wrap;html=1;aspect=fixed;" vertex="1" parent="1">
          <mxGeometry x="430" y="604.23" width="15" height="15" as="geometry" />
        </mxCell>
        <mxCell id="ipA10tFycHKsT4RxU6uv-169" value="" style="whiteSpace=wrap;html=1;aspect=fixed;" vertex="1" parent="1">
          <mxGeometry x="350" y="624.23" width="15" height="15" as="geometry" />
        </mxCell>
        <mxCell id="ipA10tFycHKsT4RxU6uv-170" value="" style="whiteSpace=wrap;html=1;aspect=fixed;" vertex="1" parent="1">
          <mxGeometry x="370" y="624.23" width="15" height="15" as="geometry" />
        </mxCell>
        <mxCell id="ipA10tFycHKsT4RxU6uv-171" value="" style="whiteSpace=wrap;html=1;aspect=fixed;" vertex="1" parent="1">
          <mxGeometry x="390" y="624.23" width="15" height="15" as="geometry" />
        </mxCell>
        <mxCell id="ipA10tFycHKsT4RxU6uv-172" value="" style="whiteSpace=wrap;html=1;aspect=fixed;" vertex="1" parent="1">
          <mxGeometry x="410" y="624.23" width="15" height="15" as="geometry" />
        </mxCell>
        <mxCell id="ipA10tFycHKsT4RxU6uv-173" value="" style="whiteSpace=wrap;html=1;aspect=fixed;" vertex="1" parent="1">
          <mxGeometry x="430" y="624.23" width="15" height="15" as="geometry" />
        </mxCell>
        <mxCell id="ipA10tFycHKsT4RxU6uv-174" value="" style="whiteSpace=wrap;html=1;aspect=fixed;" vertex="1" parent="1">
          <mxGeometry x="370" y="604.23" width="15" height="15" as="geometry" />
        </mxCell>
        <mxCell id="ipA10tFycHKsT4RxU6uv-225" value="" style="rounded=0;whiteSpace=wrap;html=1;" vertex="1" parent="1">
          <mxGeometry x="530" y="310" width="430" height="280" as="geometry" />
        </mxCell>
        <mxCell id="ipA10tFycHKsT4RxU6uv-226" value="" style="endArrow=none;html=1;rounded=0;exitX=0;exitY=0.25;exitDx=0;exitDy=0;entryX=0;entryY=0.25;entryDx=0;entryDy=0;strokeWidth=1;" edge="1" parent="1">
          <mxGeometry width="50" height="50" relative="1" as="geometry">
            <mxPoint x="530" y="400" as="sourcePoint" />
            <mxPoint x="960" y="400" as="targetPoint" />
          </mxGeometry>
        </mxCell>
        <mxCell id="ipA10tFycHKsT4RxU6uv-227" value="" style="endArrow=none;html=1;rounded=0;exitX=0;exitY=0.25;exitDx=0;exitDy=0;entryX=0;entryY=0.25;entryDx=0;entryDy=0;strokeWidth=1;" edge="1" parent="1">
          <mxGeometry width="50" height="50" relative="1" as="geometry">
            <mxPoint x="530" y="490" as="sourcePoint" />
            <mxPoint x="960" y="490" as="targetPoint" />
          </mxGeometry>
        </mxCell>
        <mxCell id="ipA10tFycHKsT4RxU6uv-232" value="" style="endArrow=none;html=1;rounded=0;" edge="1" parent="1">
          <mxGeometry width="50" height="50" relative="1" as="geometry">
            <mxPoint x="540" y="337" as="sourcePoint" />
            <mxPoint x="670" y="337" as="targetPoint" />
          </mxGeometry>
        </mxCell>
        <mxCell id="ipA10tFycHKsT4RxU6uv-233" value="" style="endArrow=none;html=1;rounded=0;startSize=6;dashed=1;dashPattern=1 1;" edge="1" parent="1">
          <mxGeometry width="50" height="50" relative="1" as="geometry">
            <mxPoint x="540" y="373" as="sourcePoint" />
            <mxPoint x="899" y="373" as="targetPoint" />
          </mxGeometry>
        </mxCell>
        <mxCell id="ipA10tFycHKsT4RxU6uv-234" value="" style="endArrow=none;html=1;rounded=0;startSize=6;dashed=1;dashPattern=1 1;" edge="1" parent="1">
          <mxGeometry width="50" height="50" relative="1" as="geometry">
            <mxPoint x="540" y="390" as="sourcePoint" />
            <mxPoint x="899" y="390" as="targetPoint" />
          </mxGeometry>
        </mxCell>
        <mxCell id="ipA10tFycHKsT4RxU6uv-235" value="" style="endArrow=none;html=1;rounded=0;" edge="1" parent="1">
          <mxGeometry width="50" height="50" relative="1" as="geometry">
            <mxPoint x="684" y="337" as="sourcePoint" />
            <mxPoint x="718" y="337" as="targetPoint" />
          </mxGeometry>
        </mxCell>
        <mxCell id="ipA10tFycHKsT4RxU6uv-236" value="" style="endArrow=none;html=1;rounded=0;" edge="1" parent="1">
          <mxGeometry width="50" height="50" relative="1" as="geometry">
            <mxPoint x="728" y="337" as="sourcePoint" />
            <mxPoint x="788" y="337" as="targetPoint" />
          </mxGeometry>
        </mxCell>
        <mxCell id="ipA10tFycHKsT4RxU6uv-237" value="" style="whiteSpace=wrap;html=1;aspect=fixed;" vertex="1" parent="1">
          <mxGeometry x="804" y="320" width="15" height="15" as="geometry" />
        </mxCell>
        <mxCell id="ipA10tFycHKsT4RxU6uv-238" value="" style="whiteSpace=wrap;html=1;aspect=fixed;" vertex="1" parent="1">
          <mxGeometry x="824" y="320" width="15" height="15" as="geometry" />
        </mxCell>
        <mxCell id="ipA10tFycHKsT4RxU6uv-239" value="" style="whiteSpace=wrap;html=1;aspect=fixed;" vertex="1" parent="1">
          <mxGeometry x="844" y="320" width="15" height="15" as="geometry" />
        </mxCell>
        <mxCell id="ipA10tFycHKsT4RxU6uv-240" value="" style="whiteSpace=wrap;html=1;aspect=fixed;" vertex="1" parent="1">
          <mxGeometry x="864" y="320" width="15" height="15" as="geometry" />
        </mxCell>
        <mxCell id="ipA10tFycHKsT4RxU6uv-241" value="" style="whiteSpace=wrap;html=1;aspect=fixed;" vertex="1" parent="1">
          <mxGeometry x="884" y="320" width="15" height="15" as="geometry" />
        </mxCell>
        <mxCell id="ipA10tFycHKsT4RxU6uv-242" value="" style="whiteSpace=wrap;html=1;aspect=fixed;" vertex="1" parent="1">
          <mxGeometry x="804" y="340" width="15" height="15" as="geometry" />
        </mxCell>
        <mxCell id="ipA10tFycHKsT4RxU6uv-243" value="" style="whiteSpace=wrap;html=1;aspect=fixed;" vertex="1" parent="1">
          <mxGeometry x="824" y="340" width="15" height="15" as="geometry" />
        </mxCell>
        <mxCell id="ipA10tFycHKsT4RxU6uv-244" value="" style="whiteSpace=wrap;html=1;aspect=fixed;" vertex="1" parent="1">
          <mxGeometry x="844" y="340" width="15" height="15" as="geometry" />
        </mxCell>
        <mxCell id="ipA10tFycHKsT4RxU6uv-245" value="" style="whiteSpace=wrap;html=1;aspect=fixed;" vertex="1" parent="1">
          <mxGeometry x="864" y="340" width="15" height="15" as="geometry" />
        </mxCell>
        <mxCell id="ipA10tFycHKsT4RxU6uv-246" value="" style="whiteSpace=wrap;html=1;aspect=fixed;" vertex="1" parent="1">
          <mxGeometry x="884" y="340" width="15" height="15" as="geometry" />
        </mxCell>
        <mxCell id="ipA10tFycHKsT4RxU6uv-247" value="" style="endArrow=none;html=1;rounded=0;" edge="1" parent="1">
          <mxGeometry width="50" height="50" relative="1" as="geometry">
            <mxPoint x="540" y="427" as="sourcePoint" />
            <mxPoint x="670" y="427" as="targetPoint" />
          </mxGeometry>
        </mxCell>
        <mxCell id="ipA10tFycHKsT4RxU6uv-248" value="" style="endArrow=none;html=1;rounded=0;startSize=6;dashed=1;dashPattern=1 1;" edge="1" parent="1">
          <mxGeometry width="50" height="50" relative="1" as="geometry">
            <mxPoint x="540" y="463" as="sourcePoint" />
            <mxPoint x="899" y="463" as="targetPoint" />
          </mxGeometry>
        </mxCell>
        <mxCell id="ipA10tFycHKsT4RxU6uv-249" value="" style="endArrow=none;html=1;rounded=0;startSize=6;dashed=1;dashPattern=1 1;" edge="1" parent="1">
          <mxGeometry width="50" height="50" relative="1" as="geometry">
            <mxPoint x="540" y="480" as="sourcePoint" />
            <mxPoint x="899" y="480" as="targetPoint" />
          </mxGeometry>
        </mxCell>
        <mxCell id="ipA10tFycHKsT4RxU6uv-250" value="" style="endArrow=none;html=1;rounded=0;" edge="1" parent="1">
          <mxGeometry width="50" height="50" relative="1" as="geometry">
            <mxPoint x="684" y="427" as="sourcePoint" />
            <mxPoint x="718" y="427" as="targetPoint" />
          </mxGeometry>
        </mxCell>
        <mxCell id="ipA10tFycHKsT4RxU6uv-251" value="" style="endArrow=none;html=1;rounded=0;" edge="1" parent="1">
          <mxGeometry width="50" height="50" relative="1" as="geometry">
            <mxPoint x="728" y="427" as="sourcePoint" />
            <mxPoint x="788" y="427" as="targetPoint" />
          </mxGeometry>
        </mxCell>
        <mxCell id="ipA10tFycHKsT4RxU6uv-252" value="" style="whiteSpace=wrap;html=1;aspect=fixed;" vertex="1" parent="1">
          <mxGeometry x="804" y="410" width="15" height="15" as="geometry" />
        </mxCell>
        <mxCell id="ipA10tFycHKsT4RxU6uv-253" value="" style="whiteSpace=wrap;html=1;aspect=fixed;" vertex="1" parent="1">
          <mxGeometry x="844" y="410" width="15" height="15" as="geometry" />
        </mxCell>
        <mxCell id="ipA10tFycHKsT4RxU6uv-254" value="" style="whiteSpace=wrap;html=1;aspect=fixed;" vertex="1" parent="1">
          <mxGeometry x="864" y="410" width="15" height="15" as="geometry" />
        </mxCell>
        <mxCell id="ipA10tFycHKsT4RxU6uv-255" value="" style="whiteSpace=wrap;html=1;aspect=fixed;" vertex="1" parent="1">
          <mxGeometry x="884" y="410" width="15" height="15" as="geometry" />
        </mxCell>
        <mxCell id="ipA10tFycHKsT4RxU6uv-256" value="" style="whiteSpace=wrap;html=1;aspect=fixed;" vertex="1" parent="1">
          <mxGeometry x="804" y="430" width="15" height="15" as="geometry" />
        </mxCell>
        <mxCell id="ipA10tFycHKsT4RxU6uv-257" value="" style="whiteSpace=wrap;html=1;aspect=fixed;" vertex="1" parent="1">
          <mxGeometry x="824" y="430" width="15" height="15" as="geometry" />
        </mxCell>
        <mxCell id="ipA10tFycHKsT4RxU6uv-258" value="" style="whiteSpace=wrap;html=1;aspect=fixed;" vertex="1" parent="1">
          <mxGeometry x="844" y="430" width="15" height="15" as="geometry" />
        </mxCell>
        <mxCell id="ipA10tFycHKsT4RxU6uv-259" value="" style="whiteSpace=wrap;html=1;aspect=fixed;" vertex="1" parent="1">
          <mxGeometry x="864" y="430" width="15" height="15" as="geometry" />
        </mxCell>
        <mxCell id="ipA10tFycHKsT4RxU6uv-260" value="" style="whiteSpace=wrap;html=1;aspect=fixed;" vertex="1" parent="1">
          <mxGeometry x="884" y="430" width="15" height="15" as="geometry" />
        </mxCell>
        <mxCell id="ipA10tFycHKsT4RxU6uv-261" value="" style="whiteSpace=wrap;html=1;aspect=fixed;" vertex="1" parent="1">
          <mxGeometry x="824" y="410" width="15" height="15" as="geometry" />
        </mxCell>
        <mxCell id="ipA10tFycHKsT4RxU6uv-262" value="" style="endArrow=none;html=1;rounded=0;" edge="1" parent="1">
          <mxGeometry width="50" height="50" relative="1" as="geometry">
            <mxPoint x="540" y="521.79" as="sourcePoint" />
            <mxPoint x="670" y="521.79" as="targetPoint" />
          </mxGeometry>
        </mxCell>
        <mxCell id="ipA10tFycHKsT4RxU6uv-263" value="" style="endArrow=none;html=1;rounded=0;startSize=6;dashed=1;dashPattern=1 1;" edge="1" parent="1">
          <mxGeometry width="50" height="50" relative="1" as="geometry">
            <mxPoint x="540" y="557.79" as="sourcePoint" />
            <mxPoint x="899" y="557.79" as="targetPoint" />
          </mxGeometry>
        </mxCell>
        <mxCell id="ipA10tFycHKsT4RxU6uv-264" value="" style="endArrow=none;html=1;rounded=0;startSize=6;dashed=1;dashPattern=1 1;" edge="1" parent="1">
          <mxGeometry width="50" height="50" relative="1" as="geometry">
            <mxPoint x="540" y="574.79" as="sourcePoint" />
            <mxPoint x="899" y="574.79" as="targetPoint" />
          </mxGeometry>
        </mxCell>
        <mxCell id="ipA10tFycHKsT4RxU6uv-265" value="" style="endArrow=none;html=1;rounded=0;" edge="1" parent="1">
          <mxGeometry width="50" height="50" relative="1" as="geometry">
            <mxPoint x="684" y="521.79" as="sourcePoint" />
            <mxPoint x="718" y="521.79" as="targetPoint" />
          </mxGeometry>
        </mxCell>
        <mxCell id="ipA10tFycHKsT4RxU6uv-266" value="" style="endArrow=none;html=1;rounded=0;" edge="1" parent="1">
          <mxGeometry width="50" height="50" relative="1" as="geometry">
            <mxPoint x="728" y="521.79" as="sourcePoint" />
            <mxPoint x="788" y="521.79" as="targetPoint" />
          </mxGeometry>
        </mxCell>
        <mxCell id="ipA10tFycHKsT4RxU6uv-267" value="" style="whiteSpace=wrap;html=1;aspect=fixed;" vertex="1" parent="1">
          <mxGeometry x="804" y="504.78999999999996" width="15" height="15" as="geometry" />
        </mxCell>
        <mxCell id="ipA10tFycHKsT4RxU6uv-268" value="" style="whiteSpace=wrap;html=1;aspect=fixed;" vertex="1" parent="1">
          <mxGeometry x="844" y="504.78999999999996" width="15" height="15" as="geometry" />
        </mxCell>
        <mxCell id="ipA10tFycHKsT4RxU6uv-269" value="" style="whiteSpace=wrap;html=1;aspect=fixed;" vertex="1" parent="1">
          <mxGeometry x="864" y="504.78999999999996" width="15" height="15" as="geometry" />
        </mxCell>
        <mxCell id="ipA10tFycHKsT4RxU6uv-270" value="" style="whiteSpace=wrap;html=1;aspect=fixed;" vertex="1" parent="1">
          <mxGeometry x="884" y="504.78999999999996" width="15" height="15" as="geometry" />
        </mxCell>
        <mxCell id="ipA10tFycHKsT4RxU6uv-271" value="" style="whiteSpace=wrap;html=1;aspect=fixed;" vertex="1" parent="1">
          <mxGeometry x="804" y="524.79" width="15" height="15" as="geometry" />
        </mxCell>
        <mxCell id="ipA10tFycHKsT4RxU6uv-272" value="" style="whiteSpace=wrap;html=1;aspect=fixed;" vertex="1" parent="1">
          <mxGeometry x="824" y="524.79" width="15" height="15" as="geometry" />
        </mxCell>
        <mxCell id="ipA10tFycHKsT4RxU6uv-273" value="" style="whiteSpace=wrap;html=1;aspect=fixed;" vertex="1" parent="1">
          <mxGeometry x="884" y="524.79" width="15" height="15" as="geometry" />
        </mxCell>
        <mxCell id="ipA10tFycHKsT4RxU6uv-274" value="" style="whiteSpace=wrap;html=1;aspect=fixed;" vertex="1" parent="1">
          <mxGeometry x="864" y="524.79" width="15" height="15" as="geometry" />
        </mxCell>
        <mxCell id="ipA10tFycHKsT4RxU6uv-275" value="" style="whiteSpace=wrap;html=1;aspect=fixed;" vertex="1" parent="1">
          <mxGeometry x="844" y="524.79" width="15" height="15" as="geometry" />
        </mxCell>
        <mxCell id="ipA10tFycHKsT4RxU6uv-276" value="" style="whiteSpace=wrap;html=1;aspect=fixed;" vertex="1" parent="1">
          <mxGeometry x="824" y="504.78999999999996" width="15" height="15" as="geometry" />
        </mxCell>
        <mxCell id="ipA10tFycHKsT4RxU6uv-228" value="" style="endArrow=none;html=1;rounded=0;entryX=0.25;entryY=0;entryDx=0;entryDy=0;" edge="1" parent="1">
          <mxGeometry width="50" height="50" relative="1" as="geometry">
            <mxPoint x="920.0000000000001" y="590" as="sourcePoint" />
            <mxPoint x="920.0000000000001" y="310" as="targetPoint" />
          </mxGeometry>
        </mxCell>
        <mxCell id="ipA10tFycHKsT4RxU6uv-231" value="&lt;font face=&quot;Garamond&quot;&gt;Special&lt;/font&gt;" style="text;html=1;align=center;verticalAlign=middle;whiteSpace=wrap;rounded=0;rotation=90;" vertex="1" parent="1">
          <mxGeometry x="910" y="520" width="60" height="30" as="geometry" />
        </mxCell>
        <mxCell id="ipA10tFycHKsT4RxU6uv-230" value="&lt;font face=&quot;Garamond&quot;&gt;Sides&lt;/font&gt;" style="text;html=1;align=center;verticalAlign=middle;whiteSpace=wrap;rounded=0;rotation=90;" vertex="1" parent="1">
          <mxGeometry x="910" y="430" width="60" height="30" as="geometry" />
        </mxCell>
        <mxCell id="ipA10tFycHKsT4RxU6uv-229" value="&lt;font face=&quot;Garamond&quot;&gt;Front&lt;/font&gt;" style="text;html=1;align=center;verticalAlign=middle;whiteSpace=wrap;rounded=0;rotation=90;" vertex="1" parent="1">
          <mxGeometry x="910" y="335" width="60" height="30" as="geometry" />
        </mxCell>
        <mxCell id="YX7qqXvMDz940lAwbusx-1" value="" style="rounded=0;whiteSpace=wrap;html=1;" vertex="1" parent="1">
          <mxGeometry x="30" y="30" width="430" height="99.44" as="geometry" />
        </mxCell>
        <mxCell id="YX7qqXvMDz940lAwbusx-2" value="" style="endArrow=none;html=1;rounded=0;" edge="1" parent="1">
          <mxGeometry width="50" height="50" relative="1" as="geometry">
            <mxPoint x="300" y="30.44" as="sourcePoint" />
            <mxPoint x="300" y="130.44" as="targetPoint" />
          </mxGeometry>
        </mxCell>
        <mxCell id="YX7qqXvMDz940lAwbusx-3" value="" style="endArrow=none;html=1;rounded=0;" edge="1" parent="1">
          <mxGeometry width="50" height="50" relative="1" as="geometry">
            <mxPoint x="46" y="56.44" as="sourcePoint" />
            <mxPoint x="176" y="56.44" as="targetPoint" />
          </mxGeometry>
        </mxCell>
        <mxCell id="YX7qqXvMDz940lAwbusx-4" value="" style="endArrow=none;html=1;rounded=0;" edge="1" parent="1">
          <mxGeometry width="50" height="50" relative="1" as="geometry">
            <mxPoint x="186" y="56.44" as="sourcePoint" />
            <mxPoint x="286" y="56.44" as="targetPoint" />
          </mxGeometry>
        </mxCell>
        <mxCell id="YX7qqXvMDz940lAwbusx-6" value="" style="endArrow=none;html=1;rounded=0;" edge="1" parent="1">
          <mxGeometry width="50" height="50" relative="1" as="geometry">
            <mxPoint x="45" y="79.44" as="sourcePoint" />
            <mxPoint x="80" y="79.44" as="targetPoint" />
          </mxGeometry>
        </mxCell>
        <mxCell id="YX7qqXvMDz940lAwbusx-10" value="" style="whiteSpace=wrap;html=1;aspect=fixed;" vertex="1" parent="1">
          <mxGeometry x="47" y="103.44" width="15" height="15" as="geometry" />
        </mxCell>
        <mxCell id="YX7qqXvMDz940lAwbusx-11" value="" style="whiteSpace=wrap;html=1;aspect=fixed;" vertex="1" parent="1">
          <mxGeometry x="67" y="103.44" width="15" height="15" as="geometry" />
        </mxCell>
        <mxCell id="YX7qqXvMDz940lAwbusx-12" value="" style="whiteSpace=wrap;html=1;aspect=fixed;" vertex="1" parent="1">
          <mxGeometry x="87" y="103.44" width="15" height="15" as="geometry" />
        </mxCell>
        <mxCell id="YX7qqXvMDz940lAwbusx-13" value="" style="whiteSpace=wrap;html=1;aspect=fixed;" vertex="1" parent="1">
          <mxGeometry x="107" y="103.44" width="15" height="15" as="geometry" />
        </mxCell>
        <mxCell id="YX7qqXvMDz940lAwbusx-14" value="" style="whiteSpace=wrap;html=1;aspect=fixed;" vertex="1" parent="1">
          <mxGeometry x="127" y="103.44" width="15" height="15" as="geometry" />
        </mxCell>
        <mxCell id="YX7qqXvMDz940lAwbusx-15" value="" style="whiteSpace=wrap;html=1;aspect=fixed;" vertex="1" parent="1">
          <mxGeometry x="147" y="103.44" width="15" height="15" as="geometry" />
        </mxCell>
        <mxCell id="YX7qqXvMDz940lAwbusx-16" value="" style="whiteSpace=wrap;html=1;aspect=fixed;" vertex="1" parent="1">
          <mxGeometry x="167" y="103.44" width="15" height="15" as="geometry" />
        </mxCell>
        <mxCell id="YX7qqXvMDz940lAwbusx-17" value="" style="whiteSpace=wrap;html=1;aspect=fixed;" vertex="1" parent="1">
          <mxGeometry x="187" y="103.44" width="15" height="15" as="geometry" />
        </mxCell>
        <mxCell id="YX7qqXvMDz940lAwbusx-18" value="" style="whiteSpace=wrap;html=1;aspect=fixed;fontStyle=1" vertex="1" parent="1">
          <mxGeometry x="207" y="103.44" width="15" height="15" as="geometry" />
        </mxCell>
        <mxCell id="YX7qqXvMDz940lAwbusx-19" value="" style="whiteSpace=wrap;html=1;aspect=fixed;fontStyle=1" vertex="1" parent="1">
          <mxGeometry x="227" y="103.44" width="15" height="15" as="geometry" />
        </mxCell>
        <mxCell id="YX7qqXvMDz940lAwbusx-20" value="" style="endArrow=none;html=1;rounded=0;" edge="1" parent="1">
          <mxGeometry width="50" height="50" relative="1" as="geometry">
            <mxPoint x="95" y="79.44000000000001" as="sourcePoint" />
            <mxPoint x="130" y="79.44000000000001" as="targetPoint" />
          </mxGeometry>
        </mxCell>
        <mxCell id="YX7qqXvMDz940lAwbusx-21" value="" style="endArrow=none;html=1;rounded=0;" edge="1" parent="1">
          <mxGeometry width="50" height="50" relative="1" as="geometry">
            <mxPoint x="150" y="79.44000000000001" as="sourcePoint" />
            <mxPoint x="185" y="79.44000000000001" as="targetPoint" />
          </mxGeometry>
        </mxCell>
        <mxCell id="YX7qqXvMDz940lAwbusx-22" value="" style="endArrow=none;html=1;rounded=0;" edge="1" parent="1">
          <mxGeometry width="50" height="50" relative="1" as="geometry">
            <mxPoint x="200" y="79.44000000000001" as="sourcePoint" />
            <mxPoint x="235" y="79.44000000000001" as="targetPoint" />
          </mxGeometry>
        </mxCell>
        <mxCell id="YX7qqXvMDz940lAwbusx-23" value="" style="endArrow=none;html=1;rounded=0;" edge="1" parent="1">
          <mxGeometry width="50" height="50" relative="1" as="geometry">
            <mxPoint x="251" y="79.44000000000001" as="sourcePoint" />
            <mxPoint x="286" y="79.44000000000001" as="targetPoint" />
          </mxGeometry>
        </mxCell>
        <mxCell id="YX7qqXvMDz940lAwbusx-24" value="" style="whiteSpace=wrap;html=1;aspect=fixed;" vertex="1" parent="1">
          <mxGeometry x="247" y="103.44" width="15" height="15" as="geometry" />
        </mxCell>
        <mxCell id="YX7qqXvMDz940lAwbusx-25" value="" style="whiteSpace=wrap;html=1;aspect=fixed;" vertex="1" parent="1">
          <mxGeometry x="267" y="103.44" width="15" height="15" as="geometry" />
        </mxCell>
        <mxCell id="YX7qqXvMDz940lAwbusx-35" value="&lt;font face=&quot;Garamond&quot;&gt;Name&lt;/font&gt;" style="text;html=1;align=center;verticalAlign=middle;whiteSpace=wrap;rounded=0;fontSize=8;" vertex="1" parent="1">
          <mxGeometry x="27" y="47.44" width="60" height="30" as="geometry" />
        </mxCell>
        <mxCell id="YX7qqXvMDz940lAwbusx-36" value="&lt;font face=&quot;Garamond&quot;&gt;Class&lt;/font&gt;" style="text;html=1;align=center;verticalAlign=middle;whiteSpace=wrap;rounded=0;fontSize=8;" vertex="1" parent="1">
          <mxGeometry x="166.5" y="47.44" width="60" height="30" as="geometry" />
        </mxCell>
        <mxCell id="YX7qqXvMDz940lAwbusx-38" value="&lt;font face=&quot;Garamond&quot;&gt;Size&lt;/font&gt;" style="text;html=1;align=center;verticalAlign=middle;whiteSpace=wrap;rounded=0;fontSize=8;" vertex="1" parent="1">
          <mxGeometry x="22.5" y="70.44" width="60" height="30" as="geometry" />
        </mxCell>
        <mxCell id="YX7qqXvMDz940lAwbusx-39" value="&lt;font face=&quot;Garamond&quot;&gt;Hull&lt;/font&gt;" style="text;html=1;align=center;verticalAlign=middle;whiteSpace=wrap;rounded=0;fontSize=8;" vertex="1" parent="1">
          <mxGeometry x="73" y="70.44" width="60" height="30" as="geometry" />
        </mxCell>
        <mxCell id="YX7qqXvMDz940lAwbusx-40" value="&lt;font face=&quot;Garamond&quot;&gt;Speed&lt;/font&gt;" style="text;html=1;align=center;verticalAlign=middle;whiteSpace=wrap;rounded=0;fontSize=8;" vertex="1" parent="1">
          <mxGeometry x="131" y="70.44" width="60" height="30" as="geometry" />
        </mxCell>
        <mxCell id="YX7qqXvMDz940lAwbusx-41" value="&lt;font face=&quot;Garamond&quot;&gt;Armor&lt;/font&gt;" style="text;html=1;align=center;verticalAlign=middle;whiteSpace=wrap;rounded=0;fontSize=8;" vertex="1" parent="1">
          <mxGeometry x="181" y="70.44" width="60" height="30" as="geometry" />
        </mxCell>
        <mxCell id="YX7qqXvMDz940lAwbusx-42" value="&lt;font face=&quot;Garamond&quot;&gt;Shields&lt;/font&gt;" style="text;html=1;align=center;verticalAlign=middle;whiteSpace=wrap;rounded=0;fontSize=8;" vertex="1" parent="1">
          <mxGeometry x="233" y="70.44" width="60" height="30" as="geometry" />
        </mxCell>
        <mxCell id="YX7qqXvMDz940lAwbusx-43" value="&lt;font face=&quot;Garamond&quot;&gt;Weapon Name&lt;/font&gt;" style="text;html=1;align=center;verticalAlign=middle;whiteSpace=wrap;rounded=0;fontSize=8;" vertex="1" parent="1">
          <mxGeometry x="81" y="425.94" width="60" height="30" as="geometry" />
        </mxCell>
        <mxCell id="YX7qqXvMDz940lAwbusx-44" value="&lt;font face=&quot;Garamond&quot;&gt;Range&lt;/font&gt;" style="text;html=1;align=center;verticalAlign=middle;whiteSpace=wrap;rounded=0;fontSize=8;" vertex="1" parent="1">
          <mxGeometry x="212" y="425.94" width="60" height="30" as="geometry" />
        </mxCell>
        <mxCell id="YX7qqXvMDz940lAwbusx-45" value="&lt;font face=&quot;Garamond&quot;&gt;Damage&lt;/font&gt;" style="text;html=1;align=center;verticalAlign=middle;whiteSpace=wrap;rounded=0;fontSize=8;" vertex="1" parent="1">
          <mxGeometry x="258" y="425.94" width="60" height="30" as="geometry" />
        </mxCell>
        <mxCell id="YX7qqXvMDz940lAwbusx-46" value="&lt;font face=&quot;Garamond&quot;&gt;Weapon Name&lt;/font&gt;" style="text;html=1;align=center;verticalAlign=middle;whiteSpace=wrap;rounded=0;fontSize=8;" vertex="1" parent="1">
          <mxGeometry x="81" y="516" width="60" height="30" as="geometry" />
        </mxCell>
        <mxCell id="YX7qqXvMDz940lAwbusx-47" value="&lt;font face=&quot;Garamond&quot;&gt;Weapon Name&lt;/font&gt;" style="text;html=1;align=center;verticalAlign=middle;whiteSpace=wrap;rounded=0;fontSize=8;" vertex="1" parent="1">
          <mxGeometry x="80.5" y="610.73" width="60" height="30" as="geometry" />
        </mxCell>
        <mxCell id="YX7qqXvMDz940lAwbusx-48" value="&lt;font face=&quot;Garamond&quot;&gt;Range&lt;/font&gt;" style="text;html=1;align=center;verticalAlign=middle;whiteSpace=wrap;rounded=0;fontSize=8;" vertex="1" parent="1">
          <mxGeometry x="211" y="610.73" width="60" height="30" as="geometry" />
        </mxCell>
        <mxCell id="YX7qqXvMDz940lAwbusx-49" value="&lt;font face=&quot;Garamond&quot;&gt;Range&lt;/font&gt;" style="text;html=1;align=center;verticalAlign=middle;whiteSpace=wrap;rounded=0;fontSize=8;" vertex="1" parent="1">
          <mxGeometry x="227" y="527.44" width="28" height="7.29" as="geometry" />
        </mxCell>
        <mxCell id="YX7qqXvMDz940lAwbusx-50" value="&lt;font face=&quot;Garamond&quot;&gt;Damage&lt;/font&gt;" style="text;html=1;align=center;verticalAlign=middle;whiteSpace=wrap;rounded=0;fontSize=8;" vertex="1" parent="1">
          <mxGeometry x="272" y="522.44" width="32" height="17.29" as="geometry" />
        </mxCell>
        <mxCell id="YX7qqXvMDz940lAwbusx-52" value="&lt;font face=&quot;Garamond&quot;&gt;Damage&lt;/font&gt;" style="text;html=1;align=center;verticalAlign=middle;whiteSpace=wrap;rounded=0;fontSize=8;" vertex="1" parent="1">
          <mxGeometry x="272" y="617.09" width="32" height="17.29" as="geometry" />
        </mxCell>
      </root>
    </mxGraphModel>
  </diagram>
</mxfile>
